<?xml version="1.0" encoding="UTF-8"?>
<svg xmlns="http://www.w3.org/2000/svg" width="546" height="454" viewBox="0 0 546 454" fill="none">
  <path d="M274 446.612C420.917 446.612 540.017 439.659 540.017 431.081C540.017 422.504 420.917 415.55 274 415.55C127.083 415.55 7.98242 422.504 7.98242 431.081C7.98242 439.659 127.083 446.612 274 446.612Z" fill="#F5F5F5"></path>
  <path d="M421.984 10.851H383.801C380.369 10.851 377.586 13.6339 377.586 17.0659V51.696C377.586 55.128 380.369 57.9109 383.801 57.9109H421.984C425.416 57.9109 428.199 55.128 428.199 51.696V17.0659C428.199 13.6339 425.416 10.851 421.984 10.851Z" fill="#1B87C6"></path>
  <path d="M397.945 51.929C397.945 51.929 401.142 67.391 422.93 75.966C422.93 75.966 409.607 67.446 410.431 51.929H397.945Z" fill="#1B87C6"></path>
  <path d="M391.938 33.05L399.168 43.093L413.848 25.683" stroke="white" stroke-width="3" stroke-linecap="round" stroke-linejoin="round"></path>
  <path d="M469.551 65.004C476.26 69.82 482.324 78.052 477.783 101.102C473.242 124.151 472.089 129.639 472.089 129.639L428.185 124.7C428.185 124.7 426.127 104.298 429.557 85.104C434.195 60.312 449.904 50.886 469.551 65.004Z" fill="#263238"></path>
  <path d="M425.606 192.367C425.606 192.367 410.734 271.6 406.768 304.158C401.582 346.607 380.385 408.704 380.385 408.704L388.864 410.899C388.864 410.899 418.746 358.118 424.536 310.647C448.271 262.119 450.192 202.355 450.192 202.355L425.606 192.367Z" fill="#EEC1BB"></path>
  <path d="M364.552 427.912C365.922 427.281 367.396 426.909 368.901 426.814C368.901 426.814 374.115 423.741 379.274 411.832H385.091C386.072 411.846 387.025 412.159 387.822 412.731C388.619 413.302 389.222 414.104 389.55 415.029C389.645 415.289 389.701 415.562 389.714 415.838C389.65 417.218 389.498 418.593 389.262 419.954C388.411 424.592 387.279 429.174 385.873 433.674L384.885 433.414L386.669 424.756C387.272 421.806 384.172 424.647 382.745 427.624C381.318 430.601 379.164 433.496 372.784 432.124C365.265 430.34 362.261 429.256 364.552 427.912Z" fill="#263238"></path>
  <path d="M389.77 415.139C390.868 412.326 392.267 407.291 392.267 407.291L379.823 405.562C379.823 405.562 379.823 411.681 377.518 415.687C384.022 415.66 389.77 415.139 389.77 415.139Z" fill="#263238"></path>
  <path d="M441.041 191.105C441.041 191.105 442.893 271.71 445.733 304.363C449.451 346.978 441.549 412.12 441.549 412.12L450.302 412.504C450.302 412.504 468.618 354.688 464.502 307.025C477.687 254.642 467.246 195.783 467.246 195.783L441.041 191.105Z" fill="#EEC1BB"></path>
  <path d="M427.939 430.574C429.235 429.794 430.663 429.259 432.151 428.996C432.151 428.996 436.995 425.387 440.85 412.985L446.612 412.326C447.596 412.233 448.584 412.447 449.442 412.939C450.299 413.43 450.983 414.174 451.401 415.07C451.524 415.316 451.607 415.58 451.648 415.852C451.737 417.255 451.737 418.661 451.648 420.064C451.295 424.745 450.658 429.4 449.74 434.004L448.739 433.866L449.576 425.058C449.85 422.067 447.092 425.223 445.981 428.337C444.87 431.452 443.004 434.648 436.473 433.825C428.872 432.906 425.758 432.124 427.939 430.574Z" fill="#263238"></path>
  <path d="M451.578 415.139C452.36 412.23 453.211 407.071 453.211 407.071L440.657 406.701C440.657 406.701 441.315 412.779 439.463 417.018C445.912 416.264 451.578 415.139 451.578 415.139Z" fill="#263238"></path>
  <path d="M422.436 179.141L406.123 291.947C406.123 291.947 459.246 300.179 480.512 295.363C480.512 295.363 485.74 230.234 463.541 182.859L422.436 179.141Z" fill="#263238"></path>
  <path d="M373.333 139.257L359.133 125.235C359.133 125.235 358.652 121.476 357.267 120.433C355.881 119.39 346.167 115.851 344.919 116.633C343.67 117.415 342.065 125.29 343.739 126.73C345.413 128.171 354.262 130.01 355.167 129.859L370.575 148.12L373.333 139.257Z" fill="#EEC1BB"></path>
  <path d="M424.152 113.697C418.033 116.948 396.3 147.324 393.103 148.82C389.907 150.315 365.444 130.49 365.444 130.49L361.328 137.528C361.328 137.528 381.386 165.956 392.733 164.584C404.079 163.212 425.798 139.202 425.798 139.202L424.152 113.697Z" fill="#1B87C6"></path>
  <path opacity="0.1" d="M424.152 113.697C418.033 116.948 396.3 147.324 393.103 148.82C389.907 150.315 365.444 130.49 365.444 130.49L361.328 137.528C361.328 137.528 381.386 165.956 392.733 164.584C404.079 163.212 425.798 139.202 425.798 139.202L424.152 113.697Z" fill="white"></path>
  <path d="M366.789 131.244L365.088 129.639L360.629 137.185L362.234 140.272L366.789 131.244Z" fill="#1B87C6"></path>
  <path opacity="0.2" d="M417.071 147.997C422.148 143.153 425.797 139.134 425.797 139.134L425.413 133.097L423.547 127.238C420.915 129.948 418.957 133.239 417.832 136.845C416.707 140.451 416.447 144.271 417.071 147.997Z" fill="black"></path>
  <path d="M422.093 177.989C420.378 147.805 421.146 131.176 421.928 122.875C422.792 114.026 424.151 113.697 424.151 113.697C424.151 113.697 433.755 112.764 442.083 112.832C448.526 113.051 454.945 113.729 461.291 114.863C467.331 115.865 473.292 117.3 479.127 119.157C478.153 121.901 477.274 124.645 476.451 127.06C475.367 130.339 474.393 133.371 473.501 136.211C471.855 141.507 470.565 146.089 469.55 150.192C466.927 160.522 465.396 171.098 464.981 181.748C464.981 181.748 475.532 209.325 477.59 229.562L442.604 233.335L437.802 213.098L433 234.021L413.449 227.161L422.093 177.989Z" fill="#1B87C6"></path>
  <path opacity="0.1" d="M422.093 177.989C420.378 147.805 421.146 131.176 421.928 122.875C422.792 114.026 424.151 113.697 424.151 113.697C424.151 113.697 433.755 112.764 442.083 112.832C448.526 113.051 454.945 113.729 461.291 114.863C467.331 115.865 473.292 117.3 479.127 119.157C478.153 121.901 477.274 124.645 476.451 127.06C475.367 130.339 474.393 133.371 473.501 136.211C471.855 141.507 470.565 146.089 469.55 150.192C466.927 160.522 465.396 171.098 464.981 181.748C464.981 181.748 475.532 209.325 477.59 229.562L442.604 233.335L437.802 213.098L433 234.021L413.449 227.161L422.093 177.989Z" fill="white"></path>
  <path opacity="0.2" d="M467.851 157.587C468.317 155.282 468.866 152.826 469.538 150.192C469.964 148.518 470.43 146.762 470.91 144.896C469.538 140.217 468.166 143.88 468.166 143.88C467.316 148.402 467.209 153.031 467.851 157.587Z" fill="black"></path>
  <path d="M442.564 114.671C442.987 114.457 443.422 114.269 443.867 114.108C444.855 113.326 446.063 111.446 446.008 106.878C445.963 105.066 445.793 103.26 445.5 101.472L458.218 99.098C458.218 99.098 453.883 107.66 457.491 114.026C458.74 114.575 459.481 115.398 459.343 116.399C458.397 123.74 442.591 130.846 442.591 130.846C442.591 130.846 434.894 118.883 442.564 114.671Z" fill="#EEC1BB"></path>
  <path opacity="0.2" d="M445.5 101.472C445.787 103.247 445.952 105.039 445.994 106.836C454.583 106.836 458.218 99.098 458.218 99.098L445.5 101.472Z" fill="black"></path>
  <path d="M452.538 65.951C441.48 65.347 437.597 71.069 436.17 82.415C434.373 96.601 436.98 106.891 450.974 104.614C469.976 101.472 470.909 66.953 452.538 65.951Z" fill="#EEC1BB"></path>
  <path d="M443.346 82.264C442.37 83.866 441.205 85.345 439.875 86.668C440.178 87.137 440.605 87.514 441.108 87.756C441.612 87.998 442.173 88.097 442.729 88.04L443.346 82.264Z" fill="#D4827D"></path>
  <path d="M450.164 81.66C450.164 82.566 450.521 83.348 451.124 83.389C451.728 83.43 452.277 82.744 452.359 81.839C452.441 80.933 451.989 80.151 451.385 80.11C450.781 80.069 450.232 80.755 450.164 81.66Z" fill="#263238"></path>
  <path d="M451.634 80.165L449.727 79.246C449.727 79.246 450.577 80.974 451.634 80.165Z" fill="#263238"></path>
  <path d="M438.902 80.59C438.833 81.496 439.258 82.264 439.862 82.319C440.466 82.374 441.028 81.674 441.097 80.755C441.165 79.836 440.726 79.081 440.123 79.026C439.519 78.971 438.97 79.685 438.902 80.59Z" fill="#263238"></path>
  <path d="M440.37 79.095L438.463 78.162C438.463 78.162 439.313 79.904 440.37 79.095Z" fill="#263238"></path>
  <path d="M450.699 74.032C451.577 73.973 452.457 74.117 453.271 74.452C454.084 74.787 454.81 75.306 455.391 75.967" stroke="#263238" stroke-width="0.69" stroke-linecap="round" stroke-linejoin="round"></path>
  <path d="M442.756 73.127C442.011 72.892 441.223 72.829 440.451 72.943C439.678 73.057 438.942 73.345 438.297 73.785" stroke="#263238" stroke-width="0.69" stroke-linecap="round" stroke-linejoin="round"></path>
  <path d="M463.61 85.255C463.61 85.255 458.932 75.884 460.098 68.915C460.098 68.915 438.681 58.762 436.376 80.933C436.376 80.933 435.32 61.067 454.349 61.725C473.379 62.384 471.774 90.139 461.511 97.891C461.511 97.836 466.492 91.113 463.61 85.255Z" fill="#263238"></path>
  <path d="M461.676 87.491C461.859 86.219 462.54 85.07 463.569 84.299C464.598 83.527 465.891 83.195 467.164 83.375C470.566 83.938 471.815 91.072 463.199 92.293C461.964 92.431 461.319 91.196 461.676 87.491Z" fill="#EEC1BB"></path>
  <path d="M451.358 90.592C450.521 91.418 449.529 92.07 448.439 92.51C447.349 92.951 446.182 93.171 445.006 93.158" stroke="#263238" stroke-width="0.69" stroke-linecap="round" stroke-linejoin="round"></path>
  <path d="M460.098 68.914C460.098 68.914 436.198 62.699 434.195 85.104" stroke="#263238" stroke-width="0.69" stroke-linecap="round" stroke-linejoin="round"></path>
  <path d="M438.778 120.117C438.778 120.117 436.953 138.283 439.944 154.815C439.944 154.815 446.996 129.269 456.902 120.584L445.515 122.217L438.778 120.117Z" fill="#1B87C6"></path>
  <path opacity="0.5" d="M438.778 120.117C438.778 120.117 436.953 138.283 439.944 154.815C439.944 154.815 446.996 129.269 456.902 120.584L445.515 122.217L438.778 120.117Z" fill="white"></path>
  <path d="M457.065 112.037L445.499 120.584V111.501C445.499 111.501 436.156 114.89 436.814 125.221L444.484 121.695V125.221L446.281 121.819L452.345 128.748C452.345 128.748 459.768 120.09 460.577 117.483C461.387 114.877 457.065 112.037 457.065 112.037Z" fill="#1B87C6"></path>
  <path opacity="0.7" d="M457.065 112.037L445.499 120.584V111.501C445.499 111.501 436.156 114.89 436.814 125.221L444.484 121.695V125.221L446.281 121.819L452.345 128.748C452.345 128.748 459.768 120.09 460.577 117.483C461.387 114.877 457.065 112.037 457.065 112.037Z" fill="white"></path>
  <path d="M469.141 192.189L458.521 141.521C458.411 140.991 458.122 140.514 457.702 140.172C457.283 139.83 456.758 139.642 456.216 139.641H423.549C423.309 139.641 423.071 139.694 422.853 139.796C422.636 139.898 422.443 140.046 422.288 140.231C422.134 140.415 422.022 140.631 421.96 140.864C421.898 141.096 421.888 141.339 421.93 141.576L430.779 191.187C430.871 191.722 431.146 192.209 431.556 192.564C431.966 192.919 432.487 193.121 433.03 193.135L467.563 194.164C467.804 194.159 468.041 194.101 468.257 193.994C468.473 193.887 468.663 193.734 468.814 193.546C468.964 193.357 469.072 193.138 469.128 192.904C469.185 192.669 469.189 192.425 469.141 192.189Z" fill="#263238"></path>
  <path opacity="0.1" d="M469.141 192.189L458.521 141.521C458.411 140.991 458.122 140.514 457.702 140.172C457.283 139.83 456.758 139.642 456.216 139.641H423.549C423.309 139.641 423.071 139.694 422.853 139.796C422.636 139.898 422.443 140.046 422.288 140.231C422.134 140.415 422.022 140.631 421.96 140.864C421.898 141.096 421.888 141.339 421.93 141.576L430.779 191.187C430.871 191.722 431.146 192.209 431.556 192.564C431.966 192.919 432.487 193.121 433.03 193.135L467.563 194.164C467.804 194.159 468.041 194.101 468.257 193.994C468.473 193.887 468.663 193.734 468.814 193.546C468.964 193.357 469.072 193.138 469.128 192.904C469.185 192.669 469.189 192.425 469.141 192.189Z" fill="white"></path>
  <path d="M483.257 175.779L466.368 165.133C466.368 165.133 465.078 161.579 463.514 160.852C461.95 160.125 451.688 158.767 450.686 159.796C449.685 160.825 449.767 168.851 451.715 169.907C453.663 170.964 462.691 170.84 463.542 170.497L482.462 184.986L483.257 175.779Z" fill="#EEC1BB"></path>
  <path d="M479.129 119.157C479.129 119.157 468.153 135.182 469.703 148.902L484.342 173.132L474.505 168.11L470.046 176.507C470.046 176.507 481.365 193.945 495.771 189.829C510.177 185.713 479.129 119.157 479.129 119.157Z" fill="#1B87C6"></path>
  <path opacity="0.1" d="M479.129 119.157C479.129 119.157 468.153 135.182 469.703 148.902L484.342 173.132L474.505 168.11L470.046 176.507C470.046 176.507 481.365 193.945 495.771 189.829C510.177 185.713 479.129 119.157 479.129 119.157Z" fill="white"></path>
  <path d="M475.534 167.644L469.936 178.057L468.674 175.08L473.133 166.615L475.534 167.644Z" fill="#1B87C6"></path>
  <path d="M455.103 139.641C453.813 139.641 453.813 173.392 453.813 173.392L424.315 172.542C424.315 172.542 420.995 144.004 424.315 139.614L455.103 139.641Z" fill="white"></path>
  <path opacity="0.1" d="M455.103 139.641C453.813 139.641 453.813 173.392 453.813 173.392L424.315 172.542C424.315 172.542 420.995 144.004 424.315 139.614L455.103 139.641Z" fill="black"></path>
  <path d="M333.269 112.901L361.162 124.631C361.313 124.697 361.449 124.792 361.563 124.91C361.677 125.028 361.766 125.168 361.826 125.321C361.886 125.474 361.915 125.637 361.912 125.801C361.909 125.965 361.873 126.127 361.807 126.278C361.678 126.574 361.436 126.807 361.135 126.925C360.834 127.044 360.498 127.038 360.202 126.909L332.131 115.014L331.87 114.876L328.605 112.448L332.899 112.818C333.026 112.826 333.151 112.854 333.269 112.901Z" fill="#263238"></path>
  <path d="M240.729 170.717L213.632 173.132L202.766 166.999C202.766 166.999 167.917 147.585 158.862 141.452C156.118 139.572 153.552 135.484 151.343 130.682C149.49 126.564 147.895 122.335 146.569 118.018C145.951 116.084 145.402 114.232 144.936 112.53C143.893 108.867 143.248 106.123 143.07 105.382C143.078 105.323 143.078 105.263 143.07 105.204H143.139L151.727 102.46L158.903 100.182C158.903 100.182 159.232 101.884 159.795 104.477L160.289 106.768C160.44 107.427 160.591 108.14 160.755 108.853C162.566 116.838 165.351 127.732 167.368 129.516C170.62 132.383 211.505 160.249 212.96 160.976C214.414 161.703 227.434 160.976 227.434 160.976L240.729 170.717Z" fill="#E4897B"></path>
  <path d="M142.852 66.733C155.337 66.541 163.281 105.231 163.281 105.231L146.817 113.463C142.14 105.366 139.701 96.17 139.751 86.819C140.135 71.974 142.852 66.733 142.852 66.733Z" fill="#1B87C6"></path>
  <path opacity="0.5" d="M142.852 66.733C155.337 66.541 163.281 105.231 163.281 105.231L146.817 113.463C142.14 105.366 139.701 96.17 139.751 86.819C140.135 71.974 142.852 66.733 142.852 66.733Z" fill="white"></path>
  <path d="M165.104 105.986L160.659 108.867L154.856 112.626L146.514 118.018L145.018 118.993L143.207 113.491L144.881 112.585L145.979 111.982L153.607 107.824L159.699 104.49L162.745 102.83L163.28 102.542L165.104 105.986Z" fill="#1B87C6"></path>
  <path opacity="0.2" d="M155.597 118.993C155.623 123.282 154.092 127.435 151.289 130.682C149.436 126.564 147.841 122.335 146.515 118.018L145.019 118.993L143.208 113.505L144.882 112.599C143.839 108.936 143.194 106.192 143.016 105.451V105.231L144.992 90.139C147.584 94.036 149.799 98.17 151.605 102.487C152.318 104.175 152.977 105.972 153.581 107.838C153.791 108.478 153.983 109.137 154.157 109.814C154.417 110.747 154.637 111.694 154.829 112.64C155.275 114.73 155.532 116.856 155.597 118.993Z" fill="black"></path>
  <path d="M140.984 421.642L152.467 422.863L154.621 398.099L143.138 396.877L140.984 421.642Z" fill="#E4897B"></path>
  <path d="M83.7031 420.805H94.8161L95.7351 395.039H84.6081L83.7031 420.805Z" fill="#E4897B"></path>
  <path d="M96.3676 419.515H82.8536C82.6326 419.519 82.4186 419.597 82.2476 419.736C82.0756 419.875 81.9556 420.068 81.9066 420.284L79.7116 430.19C79.6656 430.4 79.6616 430.618 79.6996 430.831C79.7386 431.043 79.8186 431.246 79.9366 431.427C80.0536 431.608 80.2056 431.764 80.3836 431.886C80.5616 432.008 80.7626 432.094 80.9736 432.138C81.0916 432.158 81.2126 432.158 81.3306 432.138C85.7076 432.138 88.8906 431.808 94.3786 431.808C97.7676 431.808 107.975 432.151 112.64 432.151C117.305 432.151 117.922 427.542 116.001 427.116C107.426 425.25 100.909 422.657 98.1646 420.256C97.6766 419.798 97.0376 419.535 96.3676 419.515Z" fill="#263238"></path>
  <path d="M97.1351 421.066C97.0821 421.052 97.0331 421.023 96.9961 420.981C96.9601 420.939 96.9361 420.888 96.9301 420.832C96.9231 420.784 96.9321 420.734 96.9541 420.69C96.9761 420.646 97.0101 420.61 97.0531 420.585C97.4511 420.325 101.046 418.116 102.28 418.761C102.421 418.822 102.539 418.924 102.62 419.054C102.701 419.184 102.74 419.335 102.733 419.488C102.761 419.744 102.725 420.003 102.629 420.242C102.534 420.481 102.381 420.693 102.184 420.86C101.559 421.293 100.803 421.496 100.044 421.436C99.0641 421.423 98.0881 421.299 97.1351 421.066ZM97.8901 420.695C99.1891 421.136 100.608 421.063 101.855 420.489C101.985 420.371 102.085 420.224 102.147 420.059C102.209 419.894 102.232 419.718 102.212 419.543C102.212 419.337 102.116 419.241 102.034 419.241C101.934 419.184 101.818 419.16 101.704 419.172C100.347 419.429 99.0511 419.946 97.8901 420.695Z" fill="#1B87C6"></path>
  <path d="M97.0127 421.148C96.9727 421.12 96.9407 421.083 96.9197 421.04C96.8977 420.997 96.8877 420.949 96.8887 420.901C96.8887 420.75 97.1777 417.553 98.4667 416.511C98.6157 416.376 98.7927 416.275 98.9847 416.216C99.1767 416.156 99.3797 416.14 99.5787 416.168C99.7777 416.167 99.9707 416.234 100.126 416.359C100.281 416.484 100.388 416.659 100.429 416.854C100.649 418.034 98.4257 420.476 97.2867 421.107H97.1637C97.1187 421.135 97.0657 421.149 97.0127 421.148ZM98.7967 416.812C97.9987 417.809 97.5197 419.024 97.4247 420.297C98.5767 419.433 99.9897 417.553 99.8527 416.854C99.8527 416.785 99.8527 416.593 99.4687 416.593H99.3447C99.1607 416.607 98.9847 416.674 98.8377 416.785L98.7967 416.812Z" fill="#1B87C6"></path>
  <path d="M153.676 419.172H140.161C139.942 419.173 139.728 419.248 139.557 419.385C139.385 419.522 139.264 419.713 139.215 419.927L137.019 429.833C136.93 430.258 137.012 430.702 137.249 431.067C137.485 431.432 137.857 431.689 138.282 431.781H138.652C143.015 431.699 146.198 431.438 151.7 431.438C155.075 431.438 165.283 431.795 169.947 431.795C174.612 431.795 175.23 427.171 173.323 426.746C164.748 424.88 158.231 422.301 155.487 419.886C154.99 419.435 154.346 419.181 153.676 419.172Z" fill="#263238"></path>
  <path d="M154.445 420.709C154.391 420.696 154.343 420.666 154.306 420.624C154.269 420.583 154.246 420.531 154.239 420.476C154.232 420.425 154.241 420.374 154.266 420.329C154.291 420.285 154.33 420.249 154.376 420.229C154.774 419.968 158.369 417.759 159.59 418.404C159.728 418.468 159.844 418.571 159.925 418.7C160.005 418.829 160.046 418.979 160.043 419.131C160.071 419.387 160.036 419.647 159.941 419.886C159.845 420.126 159.691 420.337 159.494 420.503C158.881 420.948 158.138 421.175 157.381 421.148C156.389 421.114 155.404 420.967 154.445 420.709ZM155.2 420.339C156.499 420.772 157.913 420.703 159.165 420.146C159.296 420.029 159.396 419.881 159.459 419.717C159.521 419.552 159.542 419.375 159.521 419.2C159.521 418.98 159.425 418.884 159.357 418.884C159.252 418.827 159.132 418.803 159.014 418.816C157.658 419.079 156.364 419.595 155.2 420.339Z" fill="#1B87C6"></path>
  <path d="M154.375 420.764C154.335 420.739 154.302 420.705 154.278 420.664C154.254 420.624 154.24 420.578 154.238 420.531C154.238 420.366 154.526 417.169 155.816 416.127C155.965 415.992 156.141 415.891 156.333 415.832C156.526 415.772 156.728 415.756 156.927 415.784C157.128 415.783 157.323 415.853 157.478 415.98C157.634 416.108 157.74 416.286 157.778 416.483C158.011 417.65 155.789 420.105 154.636 420.723H154.513C154.472 420.749 154.424 420.763 154.375 420.764ZM156.159 416.428C155.355 417.422 154.876 418.638 154.787 419.913C155.926 419.049 157.339 417.169 157.202 416.483C157.202 416.401 157.202 416.209 156.818 416.209H156.694C156.497 416.223 156.309 416.3 156.159 416.428Z" fill="#1B87C6"></path>
  <path opacity="0.2" d="M143.139 396.877L154.622 398.099L153.497 410.872L142.014 409.651L143.139 396.877Z" fill="black"></path>
  <path opacity="0.2" d="M84.6089 395.052H95.7359L95.2559 408.347H84.1289L84.6089 395.052Z" fill="black"></path>
  <path d="M89.1924 169.002H148.188C153.799 199.666 171.374 308.15 158.766 404.808L138.776 402.324C138.776 402.324 140.628 274.001 122.984 226.571C120.953 251.953 118.539 278.968 116.453 293.346C111.363 328.716 100.373 406.056 100.373 406.056H80.0273C80.0273 406.056 84.1433 332.05 86.1053 297.27C88.2043 259.513 89.1234 176.754 89.1924 169.002Z" fill="#1B87C6"></path>
  <path opacity="0.2" d="M123.08 226.571C125.988 234.888 128.196 243.433 129.679 252.118C131.326 229.521 124.726 205.566 124.726 205.566L123.08 226.571Z" fill="black"></path>
  <path d="M161.112 409.459L136.375 405.782L137.129 398.935L162.854 402.31L161.112 409.459Z" fill="#1B87C6"></path>
  <path opacity="0.6" d="M161.112 409.459L136.375 405.782L137.129 398.935L162.854 402.31L161.112 409.459Z" fill="white"></path>
  <path d="M102.815 406.207H78.8184V399.031L103.72 398.565L102.815 406.207Z" fill="#1B87C6"></path>
  <path opacity="0.6" d="M102.815 406.207H78.8184V399.031L103.72 398.565L102.815 406.207Z" fill="white"></path>
  <path d="M89.0824 179.264L89.0273 170.717L149.203 166.999L149.628 175.286L89.0824 179.264Z" fill="#263238"></path>
  <path d="M104.311 168.549H101.594V181.075H104.311V168.549Z" fill="#1B87C6"></path>
  <path d="M145.896 164.389L143.188 164.586L144.099 177.079L146.808 176.882L145.896 164.389Z" fill="#1B87C6"></path>
  <path d="M149.149 166.999L89.0275 171.444C89.0275 166.175 88.8906 160.303 88.4926 154.102C87.7516 142.646 86.3385 130.106 84.7605 118.348C81.4125 93.3629 77.3105 71.919 77.3105 71.919C105.3 64.853 142.852 66.692 142.852 66.692C152.606 103.242 149.149 166.999 149.149 166.999Z" fill="#1B87C6"></path>
  <path opacity="0.6" d="M149.149 166.999L89.0275 171.444C89.0275 166.175 88.8906 160.303 88.4926 154.102C87.7516 142.646 86.3385 130.106 84.7605 118.348C81.4125 93.3629 77.3105 71.919 77.3105 71.919C105.3 64.853 142.852 66.692 142.852 66.692C152.606 103.242 149.149 166.999 149.149 166.999Z" fill="white"></path>
  <path d="M98.6719 68.1741C104.16 73.0991 117.372 71.2881 117.372 71.2881C117.372 71.2881 125.604 69.0101 123.917 66.4171C119.033 65.6221 116.673 63.3441 115.685 60.4221C115.143 58.6181 114.975 56.7221 115.191 54.8511C115.267 53.8061 115.404 52.7661 115.603 51.7371L99.1389 39.5811C101.348 47.6071 103.982 62.3561 98.6719 68.1741Z" fill="#E4897B"></path>
  <path opacity="0.2" d="M102.994 47.3049C103.639 57.1559 111.734 59.8729 115.699 60.4219C115.156 58.6179 114.988 56.7219 115.205 54.8509L102.994 47.3049Z" fill="black"></path>
  <path d="M131.311 16.175C135.303 19.961 133.643 31.5 125.507 37.4C117.371 43.299 117.371 14.762 117.371 14.762C117.371 14.762 128.773 13.76 131.311 16.175Z" fill="#263238"></path>
  <path d="M101.883 49.583C103.588 52.108 106.076 54.004 108.964 54.978C111.852 55.952 114.979 55.951 117.866 54.975C121.621 53.786 124.781 51.21 126.702 47.772C126.974 47.295 127.221 46.805 127.443 46.304C131.449 36.988 132.684 20.524 122.819 14.405C119.432 12.282 115.342 11.59 111.445 12.48C107.548 13.37 104.163 15.769 102.033 19.152C100.774 21.16 99.9989 23.433 99.7699 25.793C98.5619 36.714 97.3279 43.107 101.883 49.583Z" fill="#E4897B"></path>
  <path d="M115.74 31.623C115.534 32.488 115.932 33.297 116.522 33.393C117.112 33.489 117.688 32.844 117.894 32.021C118.1 31.198 117.688 30.347 117.126 30.251C116.563 30.155 115.904 30.732 115.74 31.623Z" fill="#263238"></path>
  <path d="M125.741 33.325C125.535 34.189 125.947 35.012 126.509 35.108C127.072 35.204 127.689 34.56 127.881 33.736C128.073 32.913 127.675 32.049 127.099 31.953C126.523 31.857 125.892 32.488 125.741 33.325Z" fill="#263238"></path>
  <path d="M122.489 33.215C123.083 36.081 124.071 38.852 125.425 41.447C124.743 41.78 123.996 41.959 123.237 41.97C122.479 41.982 121.727 41.827 121.035 41.516L122.489 33.215Z" fill="#DE5753"></path>
  <path d="M113.188 27.85C113.281 27.878 113.38 27.882 113.476 27.863C113.571 27.844 113.661 27.802 113.737 27.741C114.205 27.273 114.777 26.923 115.407 26.718C116.036 26.513 116.705 26.459 117.359 26.561C117.425 26.577 117.495 26.58 117.563 26.57C117.63 26.559 117.696 26.536 117.754 26.5C117.813 26.464 117.864 26.417 117.904 26.362C117.945 26.306 117.974 26.243 117.99 26.177C118.019 26.042 117.996 25.902 117.924 25.784C117.853 25.667 117.739 25.581 117.606 25.546C116.786 25.394 115.942 25.44 115.142 25.678C114.343 25.917 113.612 26.341 113.01 26.918C112.914 27.017 112.861 27.15 112.861 27.288C112.861 27.426 112.914 27.559 113.01 27.658C113.056 27.734 113.116 27.799 113.188 27.85Z" fill="#263238"></path>
  <path d="M118.813 45.906C117.515 45.885 116.242 45.55 115.102 44.928C113.962 44.307 112.99 43.418 112.269 42.339C112.249 42.308 112.236 42.273 112.23 42.236C112.224 42.2 112.226 42.162 112.235 42.126C112.244 42.09 112.26 42.057 112.282 42.027C112.305 41.998 112.333 41.973 112.365 41.955C112.425 41.918 112.497 41.906 112.566 41.922C112.635 41.937 112.696 41.978 112.735 42.037C113.426 43.02 114.336 43.828 115.393 44.397C116.451 44.966 117.626 45.281 118.827 45.316C118.897 45.316 118.965 45.343 119.016 45.392C119.067 45.44 119.098 45.506 119.101 45.577C119.098 45.645 119.069 45.709 119.021 45.757C118.973 45.806 118.909 45.834 118.841 45.838L118.813 45.906Z" fill="#263238"></path>
  <path d="M130.627 30.608C130.718 30.662 130.823 30.691 130.929 30.691C131.06 30.649 131.171 30.56 131.24 30.441C131.309 30.321 131.33 30.18 131.299 30.046C131.086 29.236 130.681 28.49 130.117 27.871C129.553 27.252 128.848 26.779 128.061 26.492C127.93 26.454 127.789 26.468 127.669 26.532C127.548 26.596 127.458 26.705 127.417 26.835C127.377 26.968 127.391 27.111 127.455 27.234C127.519 27.357 127.628 27.45 127.76 27.494C128.374 27.74 128.922 28.126 129.36 28.621C129.799 29.117 130.115 29.708 130.284 30.348C130.319 30.413 130.368 30.47 130.427 30.515C130.486 30.56 130.555 30.592 130.627 30.608Z" fill="#263238"></path>
  <path d="M110.06 13.582V18.466C109.197 18.756 108.475 19.361 108.038 20.159C107.601 20.957 107.48 21.891 107.7 22.774C108.756 27.027 105.697 33.037 102.28 35.122C102.28 35.122 102.39 33.352 100.908 33.585C99.4266 33.819 98.6716 43.025 101.032 47.731C101.032 47.731 97.1346 43.258 95.8456 33.352C94.6376 24.187 95.2696 16.751 97.5056 13.541L110.06 13.582Z" fill="#263238"></path>
  <path d="M93.5133 33.86C94.2973 36.522 96.1023 38.766 98.5353 40.103C101.773 41.845 104.201 39.128 104.023 35.657C103.803 32.557 101.883 27.837 98.2883 27.562C94.6933 27.288 92.5803 30.581 93.5133 33.86Z" fill="#E4897B"></path>
  <path d="M95.2974 21.896C95.2974 21.896 91.9084 13.76 100.785 7.79199C109.662 1.82399 130.722 8.77998 132.204 13.623C133.686 18.466 117.757 27.261 95.2974 21.896Z" fill="#263238"></path>
  <path d="M100.744 63.111L114.176 70.465L116.014 60.422L125.426 66.541V79.369L115.465 73.428L108.468 83.911L94.6523 68.736L100.744 63.111Z" fill="#1B87C6"></path>
  <path d="M131.251 167.348L120.675 167.933C119.797 167.982 119.125 168.733 119.174 169.611L119.57 176.761C119.619 177.639 120.369 178.311 121.247 178.263L131.823 177.677C132.7 177.628 133.372 176.877 133.324 176L132.928 168.849C132.879 167.971 132.128 167.299 131.251 167.348Z" fill="white"></path>
  <path opacity="0.5" d="M100.744 63.111L114.176 70.465L116.014 60.422L125.426 66.541V79.369L115.465 73.428L108.468 83.911L94.6523 68.736L100.744 63.111Z" fill="white"></path>
  <path opacity="0.2" d="M110.06 151.495C106.067 157.504 93.2938 157.463 88.4918 154.143C87.7508 142.687 86.3378 130.147 84.7598 118.389L110.06 151.495Z" fill="black"></path>
  <path d="M89.026 105.231C89.026 105.231 91.866 123.726 94.651 127.334C97.436 130.942 155.019 162.43 155.019 162.43L174.927 160.989L184.078 171.485C184.078 171.485 157.557 175.601 154.662 174.805C152.896 174.316 151.182 173.655 149.545 172.83C149.545 172.83 89.1771 149.053 84.1001 143.62C79.0241 138.187 73.248 110.294 73.248 110.294L89.026 105.231Z" fill="#E4897B"></path>
  <path d="M77.3105 71.96C87.8475 69.765 93.2945 113.491 93.2945 113.491L71.7405 118.979C71.7405 118.979 64.3455 74.677 77.3105 71.96Z" fill="#1B87C6"></path>
  <path opacity="0.5" d="M77.3105 71.96C87.8475 69.765 93.2945 113.491 93.2945 113.491L71.7405 118.979C71.7405 118.979 64.3455 74.677 77.3105 71.96Z" fill="white"></path>
  <path d="M70.4785 117.936L94.6525 112.146V116.303L71.5615 122.999L70.4785 117.936Z" fill="#1B87C6"></path>
  <path d="M153.265 390.964V202.89C153.267 194.75 150.772 186.806 146.117 180.129L139.545 170.717H256.302L262.874 180.129C267.529 186.806 270.024 194.75 270.022 202.89V389.18" stroke="#263238" stroke-width="6" stroke-linecap="round" stroke-linejoin="round"></path>
  <path d="M401.39 432.193C408.066 432.193 413.477 426.781 413.477 420.105C413.477 413.43 408.066 408.018 401.39 408.018C394.715 408.018 389.303 413.43 389.303 420.105C389.303 426.781 394.715 432.193 401.39 432.193Z" fill="#263238"></path>
  <path opacity="0.4" d="M407.441 420.105C407.443 418.908 407.091 417.737 406.428 416.74C405.764 415.743 404.82 414.966 403.715 414.506C402.61 414.045 401.393 413.924 400.218 414.156C399.044 414.388 397.964 414.963 397.117 415.808C396.269 416.654 395.691 417.732 395.457 418.906C395.222 420.08 395.341 421.297 395.799 422.404C396.256 423.51 397.032 424.456 398.027 425.121C399.022 425.787 400.193 426.142 401.39 426.142C402.184 426.144 402.97 425.989 403.704 425.686C404.438 425.384 405.106 424.939 405.668 424.379C406.23 423.818 406.676 423.152 406.98 422.419C407.284 421.685 407.441 420.899 407.441 420.105Z" fill="white"></path>
  <path d="M399.935 422.794C398.992 422.793 398.073 422.504 397.3 421.964C396.527 421.424 395.938 420.661 395.613 419.776L388.492 400.266H404.531V418.198C404.531 419.417 404.047 420.586 403.185 421.448C402.323 422.31 401.154 422.794 399.935 422.794Z" fill="#263238"></path>
  <path opacity="0.2" d="M399.935 422.794C398.992 422.793 398.073 422.504 397.3 421.964C396.527 421.424 395.938 420.661 395.613 419.776L388.492 400.266H404.531V418.198C404.531 419.417 404.047 420.586 403.185 421.448C402.323 422.31 401.154 422.794 399.935 422.794Z" fill="white"></path>
  <path d="M266.935 432.193C273.611 432.193 279.022 426.781 279.022 420.105C279.022 413.43 273.611 408.018 266.935 408.018C260.259 408.018 254.848 413.43 254.848 420.105C254.848 426.781 260.259 432.193 266.935 432.193Z" fill="#263238"></path>
  <path opacity="0.4" d="M272.984 420.105C272.986 418.908 272.634 417.737 271.971 416.74C271.307 415.743 270.363 414.966 269.258 414.506C268.153 414.045 266.936 413.924 265.761 414.156C264.587 414.388 263.507 414.963 262.66 415.808C261.812 416.654 261.235 417.732 261 418.906C260.765 420.08 260.884 421.297 261.342 422.404C261.799 423.51 262.575 424.456 263.57 425.121C264.566 425.787 265.736 426.142 266.933 426.142C267.727 426.144 268.514 425.989 269.248 425.686C269.982 425.384 270.649 424.939 271.211 424.379C271.773 423.818 272.219 423.152 272.523 422.419C272.827 421.685 272.984 420.899 272.984 420.105Z" fill="white"></path>
  <path d="M265.48 422.794C264.537 422.793 263.618 422.504 262.845 421.964C262.072 421.424 261.483 420.661 261.158 419.776L254.037 400.266H270.076V418.198C270.076 419.417 269.592 420.586 268.73 421.448C267.868 422.31 266.699 422.794 265.48 422.794Z" fill="#263238"></path>
  <path opacity="0.2" d="M265.48 422.794C264.537 422.793 263.618 422.504 262.845 421.964C262.072 421.424 261.483 420.661 261.158 419.776L254.037 400.266H270.076V418.198C270.076 419.417 269.592 420.586 268.73 421.448C267.868 422.31 266.699 422.794 265.48 422.794Z" fill="white"></path>
  <path d="M422.176 386.203V397.618C422.176 398.641 421.77 399.621 421.047 400.344C420.324 401.067 419.343 401.473 418.321 401.473H148.133C147.11 401.473 146.13 401.067 145.407 400.344C144.684 399.621 144.277 398.641 144.277 397.618V386.203H422.176Z" fill="#263238"></path>
  <path opacity="0.4" d="M422.176 386.203V397.618C422.176 398.641 421.77 399.621 421.047 400.344C420.324 401.067 419.343 401.473 418.321 401.473H148.133C147.11 401.473 146.13 401.067 145.407 400.344C144.684 399.621 144.277 398.641 144.277 397.618V386.203H422.176Z" fill="white"></path>
  <path opacity="0.2" d="M326.136 386.203V397.618C326.136 398.641 325.73 399.621 325.007 400.344C324.284 401.067 323.303 401.473 322.281 401.473H148.133C147.11 401.473 146.13 401.067 145.407 400.344C144.684 399.621 144.277 398.641 144.277 397.618V386.203H326.136Z" fill="white"></path>
  <path d="M303.978 432.193C310.654 432.193 316.066 426.781 316.066 420.105C316.066 413.43 310.654 408.018 303.978 408.018C297.303 408.018 291.891 413.43 291.891 420.105C291.891 426.781 297.303 432.193 303.978 432.193Z" fill="#263238"></path>
  <path opacity="0.6" d="M310.029 420.105C310.031 418.908 309.679 417.737 309.016 416.74C308.352 415.743 307.408 414.966 306.303 414.506C305.198 414.045 303.981 413.924 302.806 414.156C301.632 414.388 300.552 414.963 299.705 415.808C298.857 416.654 298.279 417.732 298.045 418.906C297.81 420.08 297.929 421.297 298.387 422.404C298.844 423.51 299.62 424.456 300.615 425.121C301.611 425.787 302.781 426.142 303.978 426.142C304.772 426.144 305.558 425.989 306.292 425.686C307.027 425.384 307.694 424.939 308.256 424.379C308.818 423.818 309.264 423.152 309.568 422.419C309.872 421.685 310.029 420.899 310.029 420.105Z" fill="white"></path>
  <path d="M302.523 422.794C301.58 422.793 300.661 422.504 299.888 421.964C299.115 421.424 298.526 420.661 298.201 419.776L291.08 400.266H307.119V418.198C307.119 419.417 306.635 420.586 305.773 421.448C304.911 422.31 303.742 422.794 302.523 422.794Z" fill="#263238"></path>
  <path opacity="0.4" d="M302.523 422.794C301.58 422.793 300.661 422.504 299.888 421.964C299.115 421.424 298.526 420.661 298.201 419.776L291.08 400.266H307.119V418.198C307.119 419.417 306.635 420.586 305.773 421.448C304.911 422.31 303.742 422.794 302.523 422.794Z" fill="white"></path>
  <path d="M169.523 432.193C176.199 432.193 181.61 426.781 181.61 420.105C181.61 413.43 176.199 408.018 169.523 408.018C162.848 408.018 157.436 413.43 157.436 420.105C157.436 426.781 162.848 432.193 169.523 432.193Z" fill="#263238"></path>
  <path opacity="0.6" d="M175.572 420.105C175.574 418.908 175.222 417.737 174.559 416.74C173.896 415.743 172.951 414.966 171.846 414.506C170.741 414.045 169.524 413.924 168.349 414.156C167.175 414.388 166.095 414.963 165.248 415.808C164.4 416.654 163.823 417.732 163.588 418.906C163.353 420.08 163.472 421.297 163.93 422.404C164.387 423.51 165.163 424.456 166.158 425.121C167.154 425.787 168.324 426.142 169.521 426.142C170.315 426.144 171.102 425.989 171.836 425.686C172.57 425.384 173.237 424.939 173.799 424.379C174.361 423.818 174.807 423.152 175.111 422.419C175.415 421.685 175.572 420.899 175.572 420.105Z" fill="white"></path>
  <path d="M168.068 422.794C167.125 422.793 166.206 422.504 165.433 421.964C164.66 421.424 164.071 420.661 163.746 419.776L156.625 400.266H172.664V418.198C172.664 419.417 172.18 420.586 171.318 421.448C170.456 422.31 169.287 422.794 168.068 422.794Z" fill="#263238"></path>
  <path opacity="0.4" d="M168.068 422.794C167.125 422.793 166.206 422.504 165.433 421.964C164.66 421.424 164.071 420.661 163.746 419.776L156.625 400.266H172.664V418.198C172.664 419.417 172.18 420.586 171.318 421.448C170.456 422.31 169.287 422.794 168.068 422.794Z" fill="white"></path>
  <path d="M305.679 297.641H177.74V386.203H305.679V297.641Z" fill="#1B87C6"></path>
  <path opacity="0.4" d="M305.679 297.641H177.74V386.203H305.679V297.641Z" fill="white"></path>
  <path opacity="0.2" d="M237.107 297.641H177.74V386.203H237.107V297.641Z" fill="white"></path>
  <path opacity="0.2" d="M231.495 367.475H224.073C223.376 367.475 222.811 368.04 222.811 368.738V378.877C222.811 379.574 223.376 380.139 224.073 380.139H231.495C232.193 380.139 232.758 379.574 232.758 378.877V368.738C232.758 368.04 232.193 367.475 231.495 367.475Z" fill="black"></path>
  <path opacity="0.2" d="M218.105 367.475H210.682C209.985 367.475 209.42 368.04 209.42 368.738V378.877C209.42 379.574 209.985 380.139 210.682 380.139H218.105C218.802 380.139 219.367 379.574 219.367 378.877V368.738C219.367 368.04 218.802 367.475 218.105 367.475Z" fill="black"></path>
  <path opacity="0.4" d="M278.17 297.641H270.939V306.874H278.17V297.641Z" fill="black"></path>
  <path opacity="0.2" d="M297.942 335.453H248.139V347.033H297.942V335.453Z" fill="black"></path>
  <path opacity="0.2" d="M198.636 302.25H181.609V319.277H198.636V302.25Z" fill="black"></path>
  <path d="M318.742 209.078H190.803V297.641H318.742V209.078Z" fill="#1B87C6"></path>
  <path opacity="0.4" d="M318.742 209.078H190.803V297.641H318.742V209.078Z" fill="black"></path>
  <path opacity="0.2" d="M250.169 209.078H190.803V297.641H250.169V209.078Z" fill="white"></path>
  <path opacity="0.2" d="M244.572 278.913H237.149C236.452 278.913 235.887 279.478 235.887 280.175V290.314C235.887 291.011 236.452 291.576 237.149 291.576H244.572C245.269 291.576 245.834 291.011 245.834 290.314V280.175C245.834 279.478 245.269 278.913 244.572 278.913Z" fill="black"></path>
  <path opacity="0.2" d="M231.179 278.913H223.756C223.059 278.913 222.494 279.478 222.494 280.175V290.314C222.494 291.011 223.059 291.576 223.756 291.576H231.179C231.876 291.576 232.441 291.011 232.441 290.314V280.175C232.441 279.478 231.876 278.913 231.179 278.913Z" fill="black"></path>
  <path opacity="0.4" d="M291.232 209.078H284.002V218.311H291.232V209.078Z" fill="black"></path>
  <path opacity="0.2" d="M311.003 246.89H261.199V258.47H311.003V246.89Z" fill="black"></path>
  <path opacity="0.2" d="M211.712 213.688H194.686V230.715H211.712V213.688Z" fill="black"></path>
  <path d="M397.054 209.078H269.115V297.641H397.054V209.078Z" fill="#1B87C6"></path>
  <path opacity="0.4" d="M397.054 209.078H269.115V297.641H397.054V209.078Z" fill="white"></path>
  <path opacity="0.2" d="M328.481 209.078H269.115V297.641H328.481V209.078Z" fill="white"></path>
  <path opacity="0.2" d="M322.884 278.913H315.462C314.765 278.913 314.199 279.478 314.199 280.175V290.314C314.199 291.011 314.765 291.576 315.462 291.576H322.884C323.581 291.576 324.146 291.011 324.146 290.314V280.175C324.146 279.478 323.581 278.913 322.884 278.913Z" fill="black"></path>
  <path opacity="0.2" d="M309.494 278.913H302.071C301.374 278.913 300.809 279.478 300.809 280.175V290.314C300.809 291.011 301.374 291.576 302.071 291.576H309.494C310.191 291.576 310.756 291.011 310.756 290.314V280.175C310.756 279.478 310.191 278.913 309.494 278.913Z" fill="black"></path>
  <path opacity="0.4" d="M369.546 209.078H362.316V218.311H369.546V209.078Z" fill="black"></path>
  <path opacity="0.2" d="M389.318 246.89H339.514V258.47H389.318V246.89Z" fill="black"></path>
  <path opacity="0.2" d="M290.025 213.688H272.998V230.715H290.025V213.688Z" fill="black"></path>
  <path d="M352.808 120.515H224.869V209.078H352.808V120.515Z" fill="#1B87C6"></path>
  <path opacity="0.2" d="M284.235 120.515H224.869V209.078H284.235V120.515Z" fill="white"></path>
  <path opacity="0.2" d="M278.624 190.35H271.201C270.504 190.35 269.939 190.915 269.939 191.612V201.751C269.939 202.449 270.504 203.014 271.201 203.014H278.624C279.321 203.014 279.886 202.449 279.886 201.751V191.612C279.886 190.915 279.321 190.35 278.624 190.35Z" fill="black"></path>
  <path opacity="0.2" d="M265.247 190.35H257.824C257.127 190.35 256.562 190.915 256.562 191.612V201.751C256.562 202.449 257.127 203.014 257.824 203.014H265.247C265.944 203.014 266.509 202.449 266.509 201.751V191.612C266.509 190.915 265.944 190.35 265.247 190.35Z" fill="black"></path>
  <path opacity="0.4" d="M325.298 120.515H318.068V129.749H325.298V120.515Z" fill="black"></path>
  <path opacity="0.2" d="M345.069 158.328H295.266V169.907H345.069V158.328Z" fill="black"></path>
  <path opacity="0.2" d="M245.764 125.125H228.738V142.152H245.764V125.125Z" fill="black"></path>
  <path d="M387.093 297.641H259.154V386.203H387.093V297.641Z" fill="#263238"></path>
  <path opacity="0.2" d="M387.093 297.641H259.154V386.203H387.093V297.641Z" fill="white"></path>
  <path opacity="0.2" d="M318.52 297.641H259.154V386.203H318.52V297.641Z" fill="white"></path>
  <path opacity="0.2" d="M312.91 367.475H305.487C304.79 367.475 304.225 368.04 304.225 368.738V378.877C304.225 379.574 304.79 380.139 305.487 380.139H312.91C313.607 380.139 314.172 379.574 314.172 378.877V368.738C314.172 368.04 313.607 367.475 312.91 367.475Z" fill="black"></path>
  <path opacity="0.2" d="M299.519 367.475H292.097C291.399 367.475 290.834 368.04 290.834 368.738V378.877C290.834 379.574 291.399 380.139 292.097 380.139H299.519C300.216 380.139 300.781 379.574 300.781 378.877V368.738C300.781 368.04 300.216 367.475 299.519 367.475Z" fill="black"></path>
  <path opacity="0.4" d="M359.585 297.641H352.355V306.874H359.585V297.641Z" fill="black"></path>
  <path opacity="0.2" d="M379.357 335.453H329.553V347.033H379.357V335.453Z" fill="black"></path>
  <path opacity="0.2" d="M280.049 302.25H263.023V319.277H280.049V302.25Z" fill="black"></path>
</svg>
